<?xml version="1.0" encoding="utf-8"?>
<!-- Generator: Adobe Illustrator 21.0.1, SVG Export Plug-In . SVG Version: 6.00 Build 0)  -->
<svg version="1.1" id="Capa_1" xmlns="http://www.w3.org/2000/svg" xmlns:xlink="http://www.w3.org/1999/xlink" x="0px" y="0px"
	 viewBox="0 0 51 45.4" style="enable-background:new 0 0 51 45.4;" xml:space="preserve">
<style type="text/css">
	.st0{fill:#FFFFFF;}
	.st1{fill:#FFCC00;}
</style>
<path class="st0" d="M41.2,29.1L41.2,29.1c-0.7,0.9-1.3,1.9-1.7,3H11.1c-0.4-1.2-1.1-2.2-1.9-3H6.5c-1.2,0-2.3-0.3-3.3-0.9H2.3v2.9
	c0,1.3,0.8,2.7,1.5,3.3c0.5,0.5,1.7,0.9,2.7,0.9H44c2.3,0,4.2-1.9,4.2-4.2v-3.6c-1.1,1-2.6,1.6-4.2,1.6H41.2z"/>
<path class="st0" d="M41.2,37.4L41.2,37.4c-0.7,0.9-1.3,1.9-1.7,3H11.1c-0.4-1.2-1.1-2.2-1.9-3H6.5c-1.2,0-2.3-0.3-3.3-0.9H2.3v2.9
	c0,1.3,0.8,2.7,1.5,3.3c0.5,0.5,1.7,0.9,2.7,0.9H44c2.3,0,4.2-1.9,4.2-4.2v-3.6c-1.1,1-2.6,1.6-4.2,1.6H41.2z"/>
<path class="st1" d="M44,1.7H6.5c-2.3,0-4.2,1.8-4.2,4.2v16.9c0,1.3,0.8,2.7,1.5,3.3C4.3,26.5,5.5,27,6.5,27H44
	c2.3,0,4.2-1.9,4.2-4.2V5.9C48.3,3.6,46.4,1.7,44,1.7z M45.1,18L45.1,18c-2.5,0.9-4.7,2.9-5.7,5.8H11.1C10,21.1,7.8,19,5.4,18.1
	v-7.5c2.4-0.9,4.6-2.9,5.7-5.8h28.4c1,3,3.2,5,5.7,5.8V18z"/>
<path class="st1" d="M25.2,6.9c-4.1,0-7.5,3.3-7.5,7.5c0,4.1,3.3,7.5,7.5,7.5c4.1,0,7.5-3.3,7.5-7.5C32.7,10.2,29.4,6.9,25.2,6.9z
	 M25.9,18.6V20h-1.3v-1.3c-0.9,0-1.8-0.3-2.4-0.6l0.4-1.6c0.6,0.3,1.4,0.6,2.3,0.6c0.8,0,1.3-0.3,1.3-0.9c0-0.5-0.4-0.9-1.5-1.2
	c-1.5-0.5-2.5-1.2-2.5-2.5c0-1.2,0.9-2.2,2.3-2.5V8.8H26V10c0.9,0,1.5,0.2,2,0.5L27.5,12c-0.4-0.2-1-0.5-2-0.5
	c-0.9,0-1.2,0.4-1.2,0.8c0,0.5,0.5,0.7,1.7,1.2c1.6,0.6,2.3,1.3,2.3,2.6C28.3,17.3,27.4,18.4,25.9,18.6z"/>
</svg>
