<?xml version="1.0" encoding="utf-8"?>
<!-- Generator: Adobe Illustrator 21.0.1, SVG Export Plug-In . SVG Version: 6.00 Build 0)  -->
<svg version="1.1" id="Capa_1" xmlns="http://www.w3.org/2000/svg" xmlns:xlink="http://www.w3.org/1999/xlink" x="0px" y="0px"
	 viewBox="0 0 368.5 368.5" style="enable-background:new 0 0 368.5 368.5;" xml:space="preserve">
<style type="text/css">
	.st0{fill:#FFCC00;}
</style>
<path class="st0" d="M304.5,192.8c5.9,0,11.6,2.2,16,6.1c4.4,3.9,10.7,4.9,16.1,2.5c5.4-2.4,8.9-7.8,8.9-13.7v-88
	c0-8.3-6.7-15-15-15h-64.2c0.7-3.6,1.1-7.3,1.1-11c0-29.8-24.2-54-54-54s-54,24.2-54,54c0,3.7,0.4,7.4,1.1,11H96.3
	c-8.3,0-15,6.7-15,15v64.2c-3.6-0.8-7.3-1.1-11-1.1c-29.8,0-54,24.2-54,54s24.2,54,54,54c3.7,0,7.4-0.4,11-1.1v64.2
	c0,8.3,6.7,15,15,15h88l0,0c8.3,0,15-6.7,15-15c0-4-1.6-7.7-4.2-10.4c-3.7-4.4-5.8-9.9-5.8-15.6c0-13.2,10.8-24,24-24
	c13.3,0,24,10.8,24,24c0,5.9-2.2,11.6-6.1,16c-4,4.4-4.9,10.7-2.5,16.1s7.8,8.9,13.7,8.9h88c8.3,0,15-6.7,15-15v-88
	c0-5.9-3.5-11.3-8.9-13.7s-11.7-1.4-16.1,2.5c-4.4,4-10.1,6.1-16,6.1c-13.2,0-24-10.8-24-24C280.5,203.5,291.2,192.8,304.5,192.8z
	 M304.5,270.8c3.7,0,7.4-0.4,11-1.1v49.2h-49.2c0.7-3.6,1.1-7.3,1.1-11c0-29.8-24.2-54-54-54s-54,24.2-54,54c0,3.7,0.4,7.4,1.1,11
	h-49.2v-73c0-5.9-3.5-11.3-8.9-13.7s-11.7-1.4-16.1,2.5c-4.4,4-10.1,6.1-16,6.1c-13.2,0-24-10.8-24-24s10.8-24,24-24
	c5.9,0,11.5,2.2,16,6.2c4.4,3.9,10.7,4.9,16.1,2.5s8.9-7.8,8.9-13.7v-73h73c5.9,0,11.3-3.5,13.7-8.9c2.4-5.4,1.4-11.7-2.5-16.1
	c-4-4.4-6.1-10.1-6.1-16c0-13.2,10.8-24,24-24s24,10.8,24,24c0,5.9-2.2,11.6-6.1,16c-4,4.4-4.9,10.7-2.5,16.1s7.8,8.9,13.7,8.9h73
	V164c-3.6-0.7-7.3-1.1-11-1.1c-29.8,0-54,24.2-54,54C250.5,246.6,274.7,270.8,304.5,270.8z"/>
</svg>
