<?xml version="1.0" encoding="utf-8"?>
<!-- Generator: Adobe Illustrator 21.0.1, SVG Export Plug-In . SVG Version: 6.00 Build 0)  -->
<svg version="1.1" id="Capa_1" xmlns="http://www.w3.org/2000/svg" xmlns:xlink="http://www.w3.org/1999/xlink" x="0px" y="0px"
	 viewBox="0 0 326 396.9" style="enable-background:new 0 0 326 396.9;" xml:space="preserve">
<style type="text/css">
	.st0{fill:#FFFFFF;}
	.st1{fill:#FFCC00;}
</style>
<path class="st0" d="M283,33.4H43c-8.3,0-15,6.7-15,15v180c0,32.6,22.3,65.2,66.2,97c30.9,22.4,61.4,36.1,62.7,36.7
	c1.9,0.9,4,1.3,6.1,1.3s4.2-0.4,6.1-1.3c1.3-0.6,31.8-14.3,62.7-36.7c43.9-31.8,66.2-64.4,66.2-97v-180
	C298,40.1,291.3,33.4,283,33.4z M268,228.4c0,27.8-29,54.7-53.4,72.4c-20.6,15-41.5,26-51.6,30.9c-10.1-5-31-16-51.6-30.9
	C87,283.2,58,256.2,58,228.4v-165h210V228.4z"/>
<path class="st1" d="M135.5,228.8c2.8,3,6.8,4.7,10.9,4.7s8-1.7,10.9-4.7l66.7-70c5.7-6,5.5-15.5-0.5-21.2s-15.5-5.5-21.2,0.5
	l-55.8,58.6L124,173.1c-5.7-6-15.2-6.2-21.2-0.5s-6.2,15.2-0.5,21.2L135.5,228.8z"/>
</svg>
